<?xml version="1.0" standalone="no"?>
<!DOCTYPE svg PUBLIC "-//W3C//DTD SVG 20010904//EN"
 "http://www.w3.org/TR/2001/REC-SVG-20010904/DTD/svg10.dtd">
<svg version="1.0" xmlns="http://www.w3.org/2000/svg"
 width="400.000000pt" height="400.000000pt" viewBox="0 0 400.000000 400.000000"
 preserveAspectRatio="xMidYMid meet">
<metadata>
Created by potrace 1.16, written by Peter Selinger 2001-2019
</metadata>
<g transform="translate(0.000000,400.000000) scale(0.100000,-0.100000)"
fill="#000000" stroke="none">
<path d="M0 2000 l0 -2000 2000 0 2000 0 0 2000 0 2000 -2000 0 -2000 0 0
-2000z m2170 1425 c324 -24 704 -217 933 -476 104 -117 237 -339 237 -395 0
-27 0 -27 -21 -8 -12 10 -34 44 -49 75 -88 174 -273 389 -431 501 -157 112
-381 206 -576 244 -121 23 -386 24 -508 0 -546 -104 -969 -483 -1109 -996 -31
-113 -35 -137 -46 -260 -14 -165 11 -372 62 -525 33 -101 123 -276 188 -367
79 -110 240 -266 353 -342 430 -287 950 -325 1422 -105 182 85 390 255 519
426 115 154 207 357 241 537 23 120 47 163 60 106 13 -60 -50 -289 -120 -435
-242 -502 -761 -825 -1327 -825 -257 0 -554 86 -773 223 -424 265 -675 712
-675 1202 0 344 100 625 318 896 240 298 625 500 1007 528 107 8 137 8 295 -4z
m69 -191 c394 -70 739 -330 917 -689 25 -49 47 -107 51 -129 11 -69 -18 -37
-82 90 -77 154 -120 216 -219 322 -237 251 -551 383 -906 383 -567 -1 -1040
-362 -1194 -912 -27 -97 -40 -292 -28 -411 52 -488 387 -888 864 -1032 255
-77 516 -71 773 16 279 95 517 291 669 553 25 44 66 138 90 208 49 140 52 147
68 147 16 0 3 -77 -28 -168 -141 -410 -483 -715 -924 -823 -83 -20 -120 -23
-285 -23 -165 0 -202 3 -285 23 -334 82 -609 270 -787 540 -307 464 -262 1088
109 1497 307 339 745 488 1197 408z m-65 -242 c61 -89 96 -265 96 -484 l0
-148 -39 0 -39 0 5 -202 c3 -142 1 -198 -6 -187 -6 9 -14 105 -17 213 l-7 196
43 0 43 0 -6 158 c-7 179 -27 301 -64 385 -25 55 -39 71 -40 45 -25 -858 -31
-994 -43 -981 -7 8 2 528 16 880 7 188 10 194 58 125z m-370 -39 c3 -42 6
-100 6 -130 0 -29 5 -53 10 -53 6 0 10 28 10 63 0 105 12 197 25 197 13 0 25
-91 25 -187 0 -29 5 -53 10 -53 6 0 10 20 10 43 0 95 13 197 25 197 13 0 25
-103 25 -207 0 -30 4 -53 11 -53 5 0 8 4 4 9 -3 5 -1 12 5 16 6 4 10 54 10
121 0 88 3 115 13 112 15 -6 33 -265 22 -335 -5 -38 -15 -56 -46 -86 l-40 -37
5 -298 c6 -344 -7 -309 -23 62 -10 246 -8 269 27 280 25 8 62 77 62 115 0 29
-2 30 -20 19 -16 -10 -24 -10 -40 -1 -11 7 -21 9 -25 3 -3 -5 -35 -8 -70 -6
-63 3 -65 2 -65 -22 0 -32 39 -100 61 -107 39 -13 40 -24 29 -261 -5 -126 -13
-263 -17 -304 -5 -66 -7 -71 -14 -40 -4 19 -3 153 3 298 l10 263 -40 38 c-23
22 -43 53 -47 72 -7 32 3 327 12 342 12 21 21 0 27 -70z m-84 -1172 c0 -5 -6
-11 -12 -14 -10 -3 -10 -7 0 -20 12 -15 7 -16 -60 -19 l-73 -3 -3 -42 -3 -43
60 0 c60 0 71 -6 50 -27 -8 -8 -8 -13 0 -17 26 -16 7 -26 -49 -26 l-60 0 0
-76 c0 -67 -2 -75 -15 -64 -12 10 -18 10 -30 0 -13 -11 -15 9 -15 174 l0 186
105 0 c58 0 105 -4 105 -9z m236 -25 c19 -19 34 -42 35 -52 5 -121 2 -204 -9
-230 -35 -84 -163 -83 -198 1 -17 42 -19 198 -3 244 14 39 62 71 108 71 24 0
42 -9 67 -34z m238 24 c50 -18 66 -63 66 -180 0 -87 -3 -111 -20 -138 -36 -59
-119 -67 -169 -17 -25 25 -26 29 -26 154 0 115 2 131 20 151 34 38 80 49 129
30z m308 -29 l30 -33 -4 -124 c-3 -120 -4 -124 -31 -151 -24 -25 -36 -28 -107
-31 l-80 -4 0 192 0 192 81 -4 c77 -3 82 -5 111 -37z m-143 -435 c38 -37 46
-74 26 -122 -14 -35 -14 -41 1 -72 13 -29 14 -42 5 -73 -18 -60 -50 -79 -137
-79 l-74 0 0 191 0 191 75 -4 c65 -3 78 -7 104 -32z m-690 7 c9 -17 10 -17 16
0 15 37 25 14 25 -58 l0 -75 45 0 45 0 0 75 c0 67 11 97 23 63 3 -10 7 -10 20
1 10 7 17 12 17 10 4 -89 3 -359 0 -359 -4 0 -11 5 -17 11 -8 8 -13 8 -17 0
-17 -27 -26 -5 -26 64 l0 75 -45 0 -45 0 0 -75 c0 -69 -9 -91 -26 -64 -4 8 -9
8 -17 0 -6 -6 -15 -11 -19 -11 -4 0 -8 81 -8 180 0 173 5 204 29 163z m264 5
c3 -10 7 -10 20 1 16 12 17 3 17 -121 0 -105 3 -138 16 -156 18 -26 41 -28 66
-5 16 14 18 33 18 156 0 123 2 138 15 127 12 -10 18 -10 30 0 13 11 15 -6 15
-140 l0 -152 -34 -34 c-28 -28 -42 -34 -76 -34 -34 0 -48 6 -76 34 l-34 34 0
151 c0 85 4 151 9 151 5 0 11 -6 14 -12z"/>
<path d="M1858 1719 c-15 -9 -18 -26 -18 -119 0 -100 2 -110 21 -120 16 -9 26
-8 45 5 23 15 24 21 24 113 0 53 -4 102 -8 108 -11 17 -45 24 -64 13z"/>
<path d="M2122 1714 c-20 -14 -22 -23 -22 -110 0 -81 3 -97 20 -114 11 -11 25
-20 30 -20 6 0 19 9 30 20 17 17 20 33 20 110 0 77 -3 93 -20 110 -24 24 -29
24 -58 4z"/>
<path d="M2374 1717 c-2 -7 -3 -65 -2 -128 3 -111 4 -114 26 -117 13 -2 34 4
48 12 23 16 24 22 24 116 0 91 -2 100 -22 114 -27 19 -67 21 -74 3z"/>
</g>
</svg>
